# xmcd
#
# Track frame offsets:
#	150
#	11950
#	25217
#	38002
#	52223
#	62966
#	75725
#	87403
#	100710
#	112284
#	124267
#	136278
#	148603
#	160222
#	173354
#	186459
#	199914
#	213235
#	226204
#	239119
#	251339
#	264675
#	279597
#	290533
#
# Disc length: 4380 seconds
# Revision: 0
# Processed by: cddbd v1.5.2PL0 Copyright (c) Steve Scherf et al.
# Submitted via: dBpowerAMP V12.0
#
DISCID=6e111a18
DTITLE=Rosetta Tharpe - The One And Only Queen Of Hot Gospel
DYEAR=2011
DGENRE=Gospel
TTITLE0=Rock Me
TTITLE1=I Looked Down The Line
TTITLE2=God Don t Like It
TTITLE3=The End Of My Journey
TTITLE4=Sit Down
TTITLE5=Just A Closer Walk With Thee
TTITLE6=Trouble In Mind
TTITLE7=Rock Daniel
TTITLE8=Four Or Five Times
TTITLE9=That s All
TTITLE10=Didn t It Rain
TTITLE11=Beams Of Heaven
TTITLE12=Up Above My Head I Hear Music in The  Air
TTITLE13=Precious Memories
TTITLE14=Strange Things Are Happening Every Day
TTITLE15=How Far From God
TTITLE16=When I Move To The Sky
TTITLE17=Jesus is Here To Stay
TTITLE18=This Train
TTITLE19=Family Prayer
TTITLE20=Use Me Lord
TTITLE21=Were You There When They Crucified My Lord?
TTITLE22=The Bells Of St. Mary's
TTITLE23=The Wedding Ceremony of Sister Rosetta Tharpe and Russell Morrison
EXTD=
EXTT0=
EXTT1=
EXTT2=
EXTT3=
EXTT4=
EXTT5=
EXTT6=
EXTT7=
EXTT8=
EXTT9=
EXTT10=
EXTT11=
EXTT12=
EXTT13=
EXTT14=
EXTT15=
EXTT16=
EXTT17=
EXTT18=
EXTT19=
EXTT20=
EXTT21=
EXTT22=
EXTT23=
PLAYORDER=
